<svg width="16" height="15" viewBox="0 0 16 15" fill="none" xmlns="http://www.w3.org/2000/svg">
<path d="M4.15699 14.2349L4.15699 4.68577L0.872783 4.68577L0.872783 14.2349H4.15699ZM2.51531 3.38122C3.66057 3.38122 4.37344 2.64796 4.37344 1.73163C4.3521 0.794633 3.66061 0.0817261 2.53704 0.0817261C1.41365 0.0817261 0.679016 0.794648 0.679016 1.73163C0.679016 2.648 1.39171 3.38122 2.49387 3.38122H2.51521H2.51531ZM5.97478 14.2349L9.25899 14.2349V8.90218C9.25899 8.61679 9.28032 8.33169 9.36705 8.12767C9.60447 7.55745 10.1449 6.96687 11.0521 6.96687C12.2405 6.96687 12.7159 7.84255 12.7159 9.12624V14.2348H15.9999V8.75944C15.9999 5.82633 14.3797 4.46158 12.2189 4.46158C10.4472 4.46158 9.66929 5.41865 9.23714 6.0705H9.25906L9.25906 4.68557H5.97486C6.01796 5.5816 5.97486 14.2347 5.97486 14.2347L5.97478 14.2349Z" fill="#E0E0E0"/>
</svg>
