<svg width="16" height="15" viewBox="0 0 16 15" fill="none" xmlns="http://www.w3.org/2000/svg">
<path d="M7.81703 4.02103C5.74285 4.02103 4.06889 5.64852 4.06889 7.66513C4.06889 9.68173 5.74285 11.3092 7.81703 11.3092C9.89121 11.3092 11.5652 9.68173 11.5652 7.66513C11.5652 5.64852 9.89121 4.02103 7.81703 4.02103ZM7.81703 10.0335C6.47567 10.0335 5.38101 8.96925 5.38101 7.66513C5.38101 6.361 6.47567 5.29673 7.81703 5.29673C9.1584 5.29673 10.2531 6.361 10.2531 7.66513C10.2531 8.96925 9.1584 10.0335 7.81703 10.0335ZM11.7187 3.0225C11.2344 3.0225 10.8433 3.40272 10.8433 3.87356C10.8433 4.34439 11.2344 4.72462 11.7187 4.72462C12.203 4.72462 12.594 4.34617 12.594 3.87356C12.5942 3.76175 12.5716 3.65102 12.5277 3.5477C12.4838 3.44439 12.4193 3.35051 12.338 3.27145C12.2567 3.1924 12.1601 3.12971 12.0538 3.08699C11.9476 3.04427 11.8337 3.02236 11.7187 3.0225ZM15.1233 7.66513C15.1233 6.68436 15.1324 5.71249 15.0757 4.7335C15.0191 3.59639 14.7523 2.5872 13.897 1.75568C13.0399 0.922388 12.0038 0.664761 10.8342 0.609682C9.82542 0.554603 8.8258 0.563486 7.81886 0.563486C6.8101 0.563486 5.81047 0.554603 4.80353 0.609682C3.63395 0.664761 2.59595 0.924165 1.74069 1.75568C0.883609 2.58897 0.618625 3.59639 0.561974 4.7335C0.505322 5.71426 0.51446 6.68614 0.51446 7.66513C0.51446 8.64411 0.505322 9.61777 0.561974 10.5968C0.618625 11.7339 0.885436 12.7431 1.74069 13.5746C2.59778 14.4079 3.63395 14.6655 4.80353 14.7206C5.8123 14.7756 6.81192 14.7668 7.81886 14.7668C8.82762 14.7668 9.82725 14.7756 10.8342 14.7206C12.0038 14.6655 13.0418 14.4061 13.897 13.5746C14.7541 12.7413 15.0191 11.7339 15.0757 10.5968C15.1342 9.61777 15.1233 8.64589 15.1233 7.66513ZM13.5151 11.8547C13.3817 12.1781 13.2209 12.4197 12.9632 12.6684C12.7055 12.919 12.4588 13.0753 12.1262 13.205C11.165 13.5763 8.88245 13.4928 7.81703 13.4928C6.75162 13.4928 4.46728 13.5763 3.50603 13.2068C3.17343 13.0771 2.92489 12.9207 2.66905 12.6702C2.41137 12.4197 2.25056 12.1798 2.11715 11.8565C1.73704 10.9201 1.82293 8.70097 1.82293 7.66513C1.82293 6.62928 1.73704 4.40836 2.11715 3.47379C2.25056 3.15042 2.41137 2.90879 2.66905 2.66004C2.92672 2.4113 3.17343 2.25317 3.50603 2.12347C4.46728 1.7539 6.75162 1.83741 7.81703 1.83741C8.88245 1.83741 11.1668 1.7539 12.128 2.12347C12.4606 2.25317 12.7092 2.40952 12.965 2.66004C13.2227 2.91056 13.3835 3.15042 13.5169 3.47379C13.897 4.40836 13.8111 6.62928 13.8111 7.66513C13.8111 8.70097 13.897 10.9201 13.5151 11.8547Z" fill="#E0E0E0"/>
</svg>
