<svg width="150" height="25" viewBox="0 0 150 25" fill="none" xmlns="http://www.w3.org/2000/svg">
<path d="M55.344 13.1285C56.5627 13.5591 57.5353 14.2167 58.2619 15.1013C59.0001 15.9742 59.3693 17.1031 59.3693 18.4881C59.3693 20.4434 58.6368 21.939 57.172 22.9749C55.7072 24.0107 53.7034 24.5286 51.1605 24.5286H41.4048V1.60615H51.1956C53.6682 1.60615 55.6076 2.18808 57.0138 3.35196C58.4201 4.50419 59.1232 6.03468 59.1232 7.94344C59.1232 9.28189 58.7833 10.3876 58.1037 11.2605C57.4357 12.1217 56.5158 12.7444 55.344 13.1285ZM46.5902 6.00559V11.2256H50.9495C51.9104 11.2256 52.6428 10.9637 53.1467 10.4399C53.6506 9.9162 53.9026 9.32263 53.9026 8.65922C53.9026 7.99581 53.6565 7.3906 53.1643 6.84358C52.6721 6.28492 51.9339 6.00559 50.9495 6.00559H46.5902ZM51.2308 20.1292C52.1214 20.1292 52.8362 19.9022 53.3752 19.4483C53.9143 18.9944 54.1838 18.3892 54.1838 17.6327C54.1838 16.8994 53.9026 16.2826 53.3401 15.7821C52.7776 15.27 52.0745 15.014 51.2308 15.014H46.5902V20.1292H51.2308Z" fill="#1C1C1C"/>
<path d="M71.1639 8.25768C71.6912 8.25768 72.1951 8.30424 72.6756 8.39735V12.727C72.5115 12.7037 72.2596 12.692 71.9197 12.692C70.4784 12.692 69.3651 13.0703 68.58 13.8268C67.8066 14.5717 67.4198 15.625 67.4198 16.9867V24.5286H62.3926V8.39735H66.998L67.3144 10.5796C67.5839 9.81145 68.0585 9.23534 68.7382 8.85126C69.4178 8.45554 70.2264 8.25768 71.1639 8.25768Z" fill="#1C1C1C"/>
<path d="M92.3275 8.39735V24.5286H87.4936V22.6781C86.9428 23.388 86.1753 23.9525 85.1909 24.3715C84.2066 24.7905 83.1402 25 81.9918 25C80.4801 25 79.1383 24.6508 77.9665 23.9525C76.8064 23.2426 75.9099 22.2591 75.2771 21.0021C74.6443 19.7335 74.3279 18.2612 74.3279 16.5852C74.3279 14.8394 74.6677 13.3089 75.3474 11.9937C76.0271 10.6785 76.9821 9.66015 78.2126 8.93855C79.4547 8.20531 80.8668 7.83869 82.4488 7.83869C84.7808 7.83869 86.5561 8.54865 87.7749 9.96858L88.1088 8.39735H92.3275ZM83.3277 20.4958C84.4995 20.4958 85.4487 20.1234 86.1753 19.3785C86.9135 18.622 87.2827 17.621 87.2827 16.3757C87.2827 15.1653 86.9135 14.1934 86.1753 13.4602C85.4487 12.7153 84.4995 12.3429 83.3277 12.3429C82.1558 12.3429 81.2184 12.7211 80.5153 13.4777C79.8121 14.2225 79.4606 15.2002 79.4606 16.4106C79.4606 17.621 79.8121 18.6045 80.5153 19.361C81.2301 20.1176 82.1676 20.4958 83.3277 20.4958Z" fill="#1C1C1C"/>
<path d="M105.704 7.83869C107.649 7.83869 109.161 8.4439 110.239 9.65433C111.329 10.8648 111.874 12.4884 111.874 14.5251V24.5286H106.829V15.6948C106.829 13.4835 105.915 12.3778 104.087 12.3778C103.126 12.3778 102.4 12.6571 101.907 13.2158C101.415 13.7744 101.169 14.5542 101.169 15.5552V24.5286H96.177V8.39735H100.343L100.677 10.1606C101.181 9.45065 101.878 8.88617 102.769 8.46718C103.671 8.04818 104.649 7.83869 105.704 7.83869Z" fill="#1C1C1C"/>
<path d="M132.791 0V24.5286H128.608L128.327 22.5908C127.776 23.3589 127.014 23.9525 126.042 24.3715C125.069 24.7905 123.991 25 122.807 25C121.249 25 119.86 24.645 118.641 23.9351C117.434 23.2135 116.491 22.2125 115.811 20.9323C115.132 19.6404 114.792 18.1448 114.792 16.4455C114.792 14.7579 115.132 13.2565 115.811 11.9413C116.491 10.6262 117.434 9.61359 118.641 8.90363C119.86 8.19367 121.249 7.83869 122.807 7.83869C123.885 7.83869 124.846 7.98999 125.69 8.2926C126.534 8.58357 127.231 9.0142 127.782 9.5845V0H132.791ZM123.792 20.4958C124.963 20.4958 125.913 20.1234 126.639 19.3785C127.377 18.622 127.747 17.621 127.747 16.3757C127.747 15.1653 127.377 14.1934 126.639 13.4602C125.913 12.7153 124.963 12.3429 123.792 12.3429C122.62 12.3429 121.682 12.7211 120.979 13.4777C120.276 14.2225 119.925 15.2002 119.925 16.4106C119.925 17.621 120.276 18.6045 120.979 19.361C121.694 20.1176 122.631 20.4958 123.792 20.4958Z" fill="#1C1C1C"/>
<path d="M142.934 25C140.871 25 139.184 24.517 137.871 23.551C136.571 22.585 135.85 21.264 135.709 19.588H140.666C140.69 20.135 140.912 20.5598 141.334 20.8624C141.756 21.165 142.289 21.3163 142.934 21.3163C143.508 21.3163 143.965 21.2116 144.305 21.0021C144.645 20.781 144.815 20.4551 144.815 20.0244C144.815 19.6404 144.68 19.361 144.41 19.1865C144.152 19.0002 143.795 18.8606 143.338 18.7675L140.737 18.1215C137.643 17.3883 136.096 15.7705 136.096 13.2682C136.096 11.6504 136.717 10.341 137.959 9.34008C139.213 8.33915 140.848 7.83869 142.863 7.83869C144.856 7.83869 146.467 8.32751 147.697 9.30517C148.939 10.2828 149.584 11.5689 149.631 13.1634H144.744C144.721 12.6862 144.527 12.308 144.164 12.0286C143.801 11.7377 143.332 11.5922 142.758 11.5922C142.254 11.5922 141.856 11.6969 141.563 11.9064C141.281 12.1159 141.141 12.4127 141.141 12.7968C141.141 13.1809 141.258 13.4486 141.492 13.5999C141.738 13.7395 142.149 13.8792 142.723 14.0189L145.746 14.7346C147.211 15.0722 148.283 15.6657 148.963 16.5154C149.654 17.3534 150 18.3543 150 19.5182C150 21.1825 149.361 22.5151 148.084 23.5161C146.818 24.5054 145.102 25 142.934 25Z" fill="#1C1C1C"/>
<path d="M34.8637 1.57123H37.852L28.8522 24.5286H25.864L34.8637 1.57123Z" fill="#1C1C1C"/>
<path d="M24.584 2.35834C24.2841 2.36898 23.8235 2.45409 23.2022 2.61368C22.5809 2.77327 22.1363 2.93817 21.8685 3.1084C21.4829 3.37438 21.2204 3.88505 21.0812 4.64043C20.9526 5.3958 20.8884 6.35332 20.8884 7.51298V24.094H19.4905L5.672 5.56603V17.2477C5.672 18.5564 5.75234 19.5617 5.91302 20.2639C6.08441 20.9661 6.3415 21.4661 6.68428 21.764C6.93066 21.9981 7.43948 22.2162 8.21074 22.4183C8.982 22.6205 9.49082 22.7269 9.7372 22.7375V23.8706H0.385632V22.7375C0.674855 22.7162 1.16225 22.6152 1.84782 22.4343C2.53339 22.2428 2.96186 22.0726 3.13326 21.9236C3.50818 21.6257 3.76526 21.1736 3.90452 20.5671C4.04378 19.9501 4.1134 18.9021 4.1134 17.4233V6.26821C4.1134 5.77881 4.02771 5.28941 3.85632 4.80001C3.68492 4.31062 3.45462 3.93293 3.16539 3.66695C2.77976 3.31586 2.25487 3.01797 1.59073 2.77327C0.937299 2.51793 0.407056 2.37962 0 2.35834V1.22528H6.50753L19.3298 18.4925V7.72044C19.3298 6.4012 19.2441 5.39048 19.0727 4.6883C18.9013 3.97548 18.6549 3.50205 18.3336 3.26799C18.0336 3.06584 17.5409 2.86902 16.8553 2.67752C16.1805 2.48601 15.6663 2.37962 15.3128 2.35834V1.22528H24.584V2.35834Z" fill="#1C1C1C"/>
</svg>
