<svg width="48" height="20" viewBox="0 0 48 20" fill="none" xmlns="http://www.w3.org/2000/svg">
<path d="M44.7412 10.3952C45.7265 10.7508 46.5128 11.2938 47.1001 12.0243C47.6969 12.7452 47.9953 13.6775 47.9953 14.8212C47.9953 16.4359 47.4033 17.671 46.2191 18.5264C45.0349 19.3818 43.4149 19.8095 41.3592 19.8095H33.4725V0.879951H41.3876C43.3865 0.879951 44.9544 1.36052 46.0912 2.32165C47.228 3.27318 47.7964 4.53707 47.7964 6.11333C47.7964 7.21863 47.5217 8.13171 46.9722 8.85256C46.4322 9.5638 45.6886 10.078 44.7412 10.3952ZM37.6645 4.51304V8.82372H41.1887C41.9655 8.82372 42.5576 8.60747 42.9649 8.17496C43.3723 7.74245 43.576 7.25227 43.576 6.70442C43.576 6.15658 43.377 5.65679 42.9791 5.20505C42.5813 4.74371 41.9844 4.51304 41.1887 4.51304H37.6645ZM41.416 16.1764C42.136 16.1764 42.7139 15.989 43.1497 15.6141C43.5854 15.2393 43.8033 14.7395 43.8033 14.1148C43.8033 13.5093 43.576 12.9999 43.1213 12.5866C42.6665 12.1637 42.0981 11.9522 41.416 11.9522H37.6645V16.1764H41.416Z" fill="#333333"/>
<path d="M28.1846 0.851117H30.6003L23.3247 19.8095H20.909L28.1846 0.851117Z" fill="#333333"/>
<path d="M19.8742 1.50112C19.6318 1.50991 19.2594 1.58019 18.7571 1.71198C18.2548 1.84377 17.8955 1.97995 17.679 2.12052C17.3672 2.34017 17.1551 2.76189 17.0425 3.38568C16.9386 4.00947 16.8866 4.8002 16.8866 5.75785V19.4506H15.7565L4.58536 4.15005V13.7969C4.58536 14.8775 4.65031 15.7078 4.78021 16.2877C4.91876 16.8675 5.1266 17.2805 5.40371 17.5265C5.60289 17.7198 6.01423 17.8999 6.63773 18.0668C7.26124 18.2337 7.67258 18.3216 7.87175 18.3304V19.2661H0.311753V18.3304C0.545567 18.3128 0.939588 18.2293 1.49381 18.08C2.04804 17.9218 2.39443 17.7813 2.53299 17.6583C2.83608 17.4123 3.04392 17.0389 3.1565 16.5381C3.26907 16.0285 3.32536 15.1631 3.32536 13.9419V4.72991C3.32536 4.32576 3.25608 3.92162 3.11753 3.51747C2.97897 3.11332 2.79278 2.80142 2.55897 2.58178C2.24722 2.29185 1.82289 2.04584 1.28598 1.84377C0.757732 1.63291 0.329072 1.51869 0 1.50112V0.56543H5.26083L15.6266 14.8248V5.92918C15.6266 4.83974 15.5573 4.00508 15.4188 3.42522C15.2802 2.83657 15.081 2.4456 14.8212 2.25231C14.5788 2.08538 14.1804 1.92284 13.6262 1.7647C13.0806 1.60655 12.665 1.51869 12.3792 1.50112V0.56543H19.8742V1.50112Z" fill="#333333"/>
</svg>
