<svg width="18" height="15" viewBox="0 0 18 15" fill="none" xmlns="http://www.w3.org/2000/svg">
<path d="M17.6112 1.76419C16.9635 2.04056 16.2587 2.23946 15.5328 2.31692C16.2865 1.87398 16.8509 1.1742 17.1201 0.348881C16.4129 0.765077 15.6381 1.05692 14.8301 1.21147C14.4924 0.854345 14.084 0.569845 13.6303 0.375695C13.1766 0.181545 12.6873 0.0819058 12.193 0.082986C10.1929 0.082986 8.58441 1.68673 8.58441 3.65477C8.58441 3.93113 8.61828 4.2075 8.6733 4.47339C5.6785 4.31846 3.00751 2.90315 1.23179 0.736208C0.908232 1.28289 0.738678 1.90536 0.740765 2.53885C0.740765 3.77829 1.37782 4.87118 2.34928 5.51394C1.77679 5.49163 1.2177 5.33597 0.717484 5.05961V5.10358C0.717484 6.83922 1.95774 8.27757 3.6107 8.60837C3.30034 8.68812 2.98107 8.72891 2.66041 8.7298C2.42548 8.7298 2.20325 8.70677 1.9789 8.67536C2.43606 10.0907 3.76732 11.1187 5.35256 11.1522C4.11231 12.1132 2.55882 12.6784 0.871987 12.6784C0.569331 12.6784 0.289957 12.668 0 12.6345C1.60005 13.6499 3.49853 14.2361 5.54304 14.2361C12.1803 14.2361 15.8122 8.7968 15.8122 4.07559C15.8122 3.92066 15.8122 3.76573 15.8016 3.6108C16.5042 3.10204 17.1201 2.47185 17.6112 1.76419Z" fill="#E0E0E0"/>
</svg>
